#!OML:ASF G:\JayActor3\Patient Classification 1\Patient 1\Session 5\male.ASF
:FULLY-SPECIFIED
:DEGREES
226
root 1.8627 16.6814 -5.27775 625.555 83.6837 626.715
lowerback 0.956695 1.02066 8.0312
upperback 2.44594 1.37229 0.47241
thorax 2.17726 0.856525 -3.99503
lowerneck -9.45377 -0.942734 2.30766
upperneck 9.76491 -1.72047 1.39454
head 4.46816 -0.6614 -0.0568803
rclavicle -6.21202e-015 -5.36719e-015
rhumerus -19.2254 4.56481 -87.7312
rradius 27.8646
rwrist 3.58556
rhand -18.9602 -6.31721
rfingers 7.12502
rthumb 7.3436 -36.1698
lclavicle -6.21202e-015 -5.36719e-015
lhumerus -36.3693 6.97778 83.4537
lradius 27.8366
lwrist 12.4083
lhand -18.0249 13.3025
lfingers 7.12502
lthumb 8.24634 43.1216
rfemur 6.37259 0.725739 33.695
rtibia 23.132
rfoot -24.1914 -8.83785
rtoes 4.68988
lfemur -28.2871 2.76186 -15.4378
ltibia 29.0805
lfoot -13.4699 12.2401
ltoes -13.8973
227
root 2.03417 16.6727 -5.28039 626.784 83.4876 627.846
lowerback 0.787388 1.06645 8.28739
upperback 2.46634 1.4152 0.507843
thorax 2.3068 0.888556 -4.09669
lowerneck -9.43372 -0.922911 2.30422
upperneck 9.65839 -1.68626 1.34566
head 4.43173 -0.649997 -0.0687042
rclavicle -2.65874e-015 -1.82882e-014
rhumerus -19.0037 4.81169 -87.7631
rradius 28.2657
rwrist 3.25755
rhand -18.9927 -6.32525
rfingers 7.12502
rthumb 7.31222 -36.1789
lclavicle -2.65874e-015 -1.82882e-014
lhumerus -36.3733 7.1539 83.3793
lradius 27.678
lwrist 12.2923
lhand -17.9395 13.2312
lfingers 7.12502
lthumb 8.32873 43.047
rfemur 7.43527 0.366252 33.7503
rtibia 22.1248
rfoot -23.8005 -8.4056
rtoes 4.21046
lfemur -28.3853 3.43906 -15.6634
ltibia 26.7859
lfoot -13.2413 11.4054
ltoes -14.5556
228
root 2.20667 16.6634 -5.28312 628.028 83.2895 629.002
lowerback 0.625574 1.11448 8.53475
upperback 2.48852 1.46076 0.54335
thorax 2.43456 0.922055 -4.19309
lowerneck -9.41921 -0.903725 2.29823
upperneck 9.558 -1.65386 1.30577
head 4.39824 -0.638815 -0.0775184
rclavicle 2.01766e-014 3.97569e-015
rhumerus -18.8232 5.05891 -87.8071
rradius 28.6853
rwrist 2.94447
rhand -19.045 -6.32009
rfingers 7.12502
rthumb 7.2617 -36.1755
lclavicle 2.01766e-014 3.97569e-015
lhumerus -36.3453 7.39947 83.2716
lradius 27.4334
lwrist 12.147
lhand -17.849 13.1686
lfingers 7.12502
lthumb 8.41607 42.9809
rfemur 8.52217 0.0410445 33.7971
rtibia 21.1004
rfoot -23.3633 -7.96087
rtoes 3.74774
lfemur -28.5131 4.20572 -15.927
ltibia 24.6986
lfoot -13.0668 10.3429
ltoes -15.1904
229
root 2.38009 16.6541 -5.28603 629.328 83.1015 630.224
lowerback 0.478161 1.16543 8.76302
upperback 2.50908 1.51092 0.573997
thorax 2.55314 0.957338 -4.28376
lowerneck -9.41113 -0.885027 2.29641
upperneck 9.46746 -1.62325 1.26747
head 4.36885 -0.627996 -0.08671
rclavicle -1.73937e-014 1.27222e-014
rhumerus -18.6874 5.30651 -87.8666
rradius 29.1213
rwrist 2.64287
rhand -19.1238 -6.30509
rfingers 7.12502
rthumb 7.18562 -36.1631
lclavicle -1.73937e-014 1.27222e-014
lhumerus -36.2904 7.70686 83.1313
lradius 27.1046
lwrist 11.9688
lhand -17.7742 13.1411
lfingers 7.12502
lthumb 8.4882 42.9505
rfemur 9.62201 -0.243303 33.8242
rtibia 20.0771
rfoot -22.8791 -7.51303
rtoes 3.27421
lfemur -28.669 4.97868 -16.2091
ltibia 22.8456
lfoot -12.9788 9.14233
ltoes -15.685
230
root 2.55425 16.6448 -5.28919 630.653 82.9279 631.478
lowerback 0.350288 1.21783 8.97281
upperback 2.52357 1.56472 0.593826
thorax 2.65502 0.993431 -4.37552
lowerneck -9.39883 -0.867065 2.29993
upperneck 9.37983 -1.5952 1.23832
head 4.33972 -0.617573 -0.0941073
rclavicle 1.66482e-015 8.74653e-015
rhumerus -18.5976 5.54955 -87.9477
rradius 29.5623
rwrist 2.35185
rhand -19.2112 -6.27864
rfingers 7.12502
rthumb 7.10131 -36.1395
lclavicle 1.66482e-015 8.74653e-015
lhumerus -36.2139 8.06453 82.9532
lradius 26.6924
lwrist 11.7505
lhand -17.702 13.1338
lfingers 7.12502
lthumb 8.55789 42.9403
rfemur 10.7185 -0.490817 33.8276
rtibia 19.0768
rfoot -22.3489 -7.07188
rtoes 2.76544
lfemur -28.8529 5.69406 -16.4892
ltibia 21.2469
lfoot -12.9605 7.91502
ltoes -16.0529
231
root 2.72908 16.6352 -5.2925 631.978 82.7685 632.741
lowerback 0.246134 1.26958 9.16321
upperback 2.53076 1.62016 0.602288
thorax 2.73621 1.02903 -4.46868
lowerneck -9.44092 -0.851093 2.2739
upperneck 8.97954 -1.5696 1.24538
head 4.69416 -0.609627 -0.0942361
rclavicle -9.26834e-015 -2.46493e-014
rhumerus -18.5588 5.79076 -88.0541
rradius 30.0041
rwrist 2.06172
rhand -19.3226 -6.22957
rfingers 7.12502
rthumb 6.99379 -36.094
lclavicle -9.26834e-015 -2.46493e-014
lhumerus -36.1198 8.47291 82.7344
lradius 26.1963
lwrist 11.4778
lhand -17.6428 13.1522
lfingers 7.12502
lthumb 8.61504 42.9564
rfemur 11.7988 -0.704304 33.811
rtibia 18.127
rfoot -21.7809 -6.64502
rtoes 2.22443
lfemur -29.0508 6.29417 -16.7396
ltibia 19.9149
lfoot -13.0125 6.77227
ltoes -16.2417
232
root 2.90475 16.6248 -5.29591 633.25 82.6236 633.959
lowerback 0.158887 1.31744 9.33062
upperback 2.53203 1.67237 0.601663
thorax 2.801 1.06174 -4.55892
lowerneck -9.43264 -0.831795 2.27714
upperneck 8.91968 -1.54299 1.24357
head 4.67058 -0.59768 -0.0933877
rclavicle -1.56046e-014 7.55382e-015
rhumerus -18.5665 6.02865 -88.1834
rradius 30.4376
rwrist 1.77524
rhand -19.4258 -6.17688
rfingers 7.12502
rthumb 6.89417 -36.0446
lclavicle -1.56046e-014 7.55382e-015
lhumerus -36.0092 8.94156 82.4734
lradius 25.6193
lwrist 11.1333
lhand -17.5952 13.1896
lfingers 7.12502
lthumb 8.661 42.992
rfemur 12.8446 -0.883849 33.7791
rtibia 17.2594
rfoot -21.1969 -6.24005
rtoes 1.64146
lfemur -29.254 6.78609 -16.9618
ltibia 18.8542
lfoot -13.096 5.79911
ltoes -16.392
233
root 3.08116 16.6135 -5.29933 634.459 82.4851 635.122
lowerback 0.0864273 1.36079 9.4798
upperback 2.53018 1.72028 0.596871
thorax 2.85328 1.09135 -4.64377
lowerneck -9.42733 -0.811753 2.28067
upperneck 8.86962 -1.51636 1.24903
head 4.65131 -0.58509 -0.0901643
rclavicle -7.62836e-015 7.15625e-015
rhumerus -18.6159 6.25674 -88.3294
rradius 30.8592
rwrist 1.50016
rhand -19.5233 -6.11634
rfingers 7.12502
rthumb 6.80002 -35.9871
lclavicle -7.62836e-015 7.15625e-015
lhumerus -35.8794 9.48013 82.1685
lradius 24.9613
lwrist 10.6997
lhand -17.5635 13.2443
lfingers 7.12502
lthumb 8.69162 43.0453
rfemur 13.8423 -1.03268 33.7447
rtibia 16.5031
rfoot -20.6095 -5.87404
rtoes 0.975276
lfemur -29.4456 7.20433 -17.1548
ltibia 18.0628
lfoot -13.2097 5.01698
ltoes -16.4219
234
root 3.25867 16.6005 -5.30285 635.538 82.3573 636.166
lowerback 0.0190982 1.39724 9.60643
upperback 2.52757 1.75968 0.588378
thorax 2.90006 1.11597 -4.72023
lowerneck -9.41447 -0.790573 2.28486
upperneck 8.82162 -1.48858 1.26027
head 4.63131 -0.571559 -0.0849781
rclavicle 2.85753e-014 0
rhumerus -18.7031 6.47183 -88.4894
rradius 31.2595
rwrist 1.24794
rhand -19.592 -6.07021
rfingers 7.12502
rthumb 6.7337 -35.9431
lclavicle 2.85753e-014 0
lhumerus -35.7317 10.0954 81.8178
lradius 24.2251
lwrist 10.165
lhand -17.5535 13.3138
lfingers 7.12502
lthumb 8.70128 43.1145
rfemur 14.78 -1.15614 33.7058
rtibia 15.8846
rfoot -20.0387 -5.54104
rtoes 0.245165
lfemur -29.6103 7.59876 -17.3447
ltibia 17.5303
lfoot -13.3208 4.40742
ltoes -16.3958
235
root 3.43758 16.5857 -5.30652 636.462 82.2331 637.059
lowerback -0.0472555 1.42567 9.72023
upperback 2.52101 1.78865 0.577906
thorax 2.94026 1.13469 -4.792
lowerneck -9.40265 -0.769183 2.29581
upperneck 8.78509 -1.46131 1.26865
head 4.61567 -0.557967 -0.0820524
rclavicle -8.3738e-015 3.57812e-015
rhumerus -18.8327 6.66343 -88.6637
rradius 31.6403
rwrist 1.02435
rhand -19.6353 -6.03481
rfingers 7.12502
rthumb 6.69193 -35.9091
lclavicle -8.3738e-015 3.57812e-015
lhumerus -35.5769 10.793 81.4156
lradius 23.4217
lwrist 9.52068
lhand -17.5716 13.4016
lfingers 7.12502
lthumb 8.6838 43.203
rfemur 15.6424 -1.25852 33.6716
rtibia 15.4244
rfoot -19.4928 -5.23603
rtoes -0.544488
lfemur -29.7291 7.93489 -17.5076
ltibia 17.2396
lfoot -13.4071 3.99805
ltoes -16.3353
236
root 3.61842 16.569 -5.3104 637.195 82.1144 637.763
lowerback -0.127387 1.44637 9.82171
upperback 2.51484 1.80566 0.565104
thorax 2.98648 1.14747 -4.85938
lowerneck -9.39519 -0.748853 2.3032
upperneck 8.76045 -1.43612 1.28572
head 4.60538 -0.544804 -0.0757344
rclavicle 2.40778e-014 2.22639e-014
rhumerus -18.9996 6.82513 -88.8497
rradius 31.9981
rwrist 0.831322
rhand -19.6682 -6.00435
rfingers 7.12502
rthumb 6.66015 -35.8796
lclavicle 2.40778e-014 2.22639e-014
lhumerus -35.4125 11.5746 80.9615
lradius 22.5569
lwrist 8.76178
lhand -17.6039 13.4998
lfingers 7.12502
lthumb 8.65262 43.3025
rfemur 16.4234 -1.34405 33.6402
rtibia 15.1346
rfoot -18.9776 -4.94892
rtoes -1.36505
lfemur -29.7833 8.15301 -17.6162
ltibia 17.1728
lfoot -13.4634 3.79471
ltoes -16.2415
237
root 3.80147 16.5505 -5.3147 637.728 82.0037 638.268
lowerback -0.232448 1.45855 9.90916
upperback 2.51061 1.80822 0.551514
thorax 3.04611 1.15341 -4.91958
lowerneck -9.40133 -0.728607 2.31333
upperneck 8.75493 -1.41204 1.30175
head 4.60486 -0.531749 -0.0704574
rclavicle -3.3048e-014 -9.54166e-015
rhumerus -19.2016 6.9631 -89.0442
rradius 32.3337
rwrist 0.661324
rhand -19.7025 -5.97343
rfingers 7.12502
rthumb 6.62701 -35.8497
lclavicle -3.3048e-014 -9.54166e-015
lhumerus -35.245 12.4457 80.4565
lradius 21.6437
lwrist 7.89266
lhand -17.6539 13.5954
lfingers 7.12502
lthumb 8.60431 43.4
rfemur 17.1168 -1.4213 33.6054
rtibia 15.0166
rfoot -18.4856 -4.66661
rtoes -2.20097
lfemur -29.7636 8.15315 -17.6295
ltibia 17.3184
lfoot -13.4962 3.82275
ltoes -16.0926
238
root 3.98725 16.5303 -5.31969 638.114 81.8908 638.619
lowerback -0.364429 1.46699 10.0022
upperback 2.50295 1.80242 0.534384
thorax 3.11643 1.1557 -4.98632
lowerneck -9.41399 -0.711078 2.33384
upperneck 8.76681 -1.39337 1.31717
head 4.61196 -0.520665 -0.067693
rclavicle -1.49089e-015 6.75868e-015
rhumerus -19.4481 7.06411 -89.2505
rradius 32.6481
rwrist 0.516561
rhand -19.7142 -5.95964
rfingers 7.12502
rthumb 6.61572 -35.8363
lclavicle -1.49089e-015 6.75868e-015
lhumerus -35.089 13.3904 79.8948
lradius 20.6976
lwrist 6.92087
lhand -17.7022 13.6589
lfingers 7.12502
lthumb 8.55773 43.4655
rfemur 17.7195 -1.49959 33.5678
rtibia 15.0675
rfoot -18.0024 -4.36606
rtoes -2.96878
lfemur -29.6836 7.9677 -17.547
ltibia 17.6687
lfoot -13.4999 3.99715
ltoes -15.8688
